{"accessors" : [{"bufferView" : 0, "byteOffset" : 0, "componentType" : 5125, "count" : 100392, "type" : "SCALAR", "max" : [100391], "min" : [0]}, {"bufferView" : 1, "byteOffset" : 0, "componentType" : 5126, "count" : 100392, "type" : "VEC3", "max" : [39.87799835205078, 79.7271728515625, 40.81779861450195], "min" : [-14.554200172424316, -0.02539999969303608, -3.534250020980835], "name" : "POSITION"}, {"bufferView" : 1, "byteOffset" : 12, "componentType" : 5126, "count" : 100392, "type" : "VEC3", "max" : [1.0000044107437134, 1.0000044107437134, 1.0000044107437134], "min" : [-1.0000044107437134, -1.0000044107437134, -1.0000044107437134], "name" : "NORMAL"}], "asset" : {"generator" : "Aspose.3D 22.10", "version" : "2.0"}, "buffers" : [{"uri" : "data:application/octet-stream;base64,", "byteLength" : 2810984}], "bufferViews" : [{"buffer" : 0, "byteOffset" : 0, "byteLength" : 401568, "target" : 34963}, {"buffer" : 0, "byteOffset" : 401572, "byteLength" : 2409408, "byteStride" : 24, "target" : 34962}], "meshes" : [{"primitives" : [{"attributes" : {"POSITION" : 1, "NORMAL" : 2}, "indices" : 0, "mode" : 4}], "name" : "ASCII"}], "nodes" : [{"mesh" : 0, "name" : "ASCII"}], "scene" : 0, "scenes" : [{"nodes" : [0]}]}