{
  "accessors": [
    {
      "bufferView": 1,
      "componentType": 5126,
      "count": 8968,
      "max": [
        14.708000183105469,
        -0.0,
        13.815999984741211
      ],
      "min": [
        -14.505999565124512,
        -0.10000000149011612,
        -15.293999671936035
      ],
      "type": "VEC3"
    },
    {
      "bufferView": 1,
      "byteOffset": 107616,
      "componentType": 5126,
      "count": 8968,
      "max": [
        1.0,
        1.0,
        1.0
      ],
      "min": [
        -1.0,
        -1.0,
        -1.0
      ],
      "type": "VEC3"
    },
    {
      "bufferView": 0,
      "componentType": 5125,
      "count": 26700,
      "type": "SCALAR"
    }
  ],
  "asset": {
    "extras": {
      "author": "Floating Castle Robotics (https://sketchfab.com/FloatingCastleRobotics)",
      "license": "CC-BY-NC-SA-4.0 (http://creativecommons.org/licenses/by-nc-sa/4.0/)",
      "source": "https://sketchfab.com/3d-models/atomic-magic-0e630aa7beac471594108338f6bcfb81",
      "title": "Atomic Magic"
    },
    "generator": "Sketchfab-12.68.0",
    "version": "2.0"
  },
  "bufferViews": [
    {
      "buffer": 0,
      "byteLength": 106800,
      "name": "floatBufferViews",
      "target": 34963
    },
    {
      "buffer": 0,
      "byteLength": 215232,
      "byteOffset": 106800,
      "byteStride": 12,
      "name": "floatBufferViews",
      "target": 34962
    }
  ],
  "buffers": [
    {
      "byteLength": 322032,
      "uri": "scene.bin"
    }
  ],
  "materials": [
    {
      "doubleSided": true,
      "emissiveFactor": [
        0.020476234685369098,
        1.0,
        0.0
      ],
      "name": "color_65287",
      "pbrMetallicRoughness": {
        "baseColorFactor": [
            0.0,
            0.0,
            1.0,
            1.0
        ],
        "metallicFactor": 0.0
      }
    }
  ],
  "meshes": [
    {
      "name": "Object_0",
      "primitives": [
        {
          "attributes": {
            "NORMAL": 1,
            "POSITION": 0
          },
          "indices": 2,
          "material": 0,
          "mode": 4
        }
      ]
    }
  ],
  "nodes": [
    {
      "children": [
        1
      ],
      "matrix": [
        1.0,
        0.0,
        0.0,
        0.0,
        0.0,
        2.220446049250313e-16,
        -1.0,
        0.0,
        0.0,
        1.0,
        2.220446049250313e-16,
        0.0,
        0.0,
        0.0,
        0.0,
        1.0
      ],
      "name": "Sketchfab_model"
    },
    {
      "children": [
        2
      ],
      "name": "tinker.obj.cleaner.materialmerger.gles"
    },
    {
      "mesh": 0,
      "name": "Object_2"
    }
  ],
  "scene": 0,
  "scenes": [
    {
      "name": "Sketchfab_Scene",
      "nodes": [
        0
      ]
    }
  ]
}
