{"accessors" : [{"bufferView" : 0, "byteOffset" : 0, "componentType" : 5123, "count" : 29016, "type" : "SCALAR", "max" : [29015], "min" : [0]}, {"bufferView" : 1, "byteOffset" : 0, "componentType" : 5126, "count" : 29016, "type" : "VEC3", "max" : [48.93105697631836, 64.14879608154297, 49.27845001220703], "min" : [-47.87644577026367, -32.79317092895508, -0.000401084020268172], "name" : "POSITION"}, {"bufferView" : 1, "byteOffset" : 12, "componentType" : 5126, "count" : 29016, "type" : "VEC3", "max" : [1.0000044107437134, 1.0000044107437134, 1.0000044107437134], "min" : [-1.0000044107437134, -1.0000044107437134, -1.0000044107437134], "name" : "NORMAL"}, {"bufferView" : 1, "byteOffset" : 24, "componentType" : 5126, "count" : 29016, "type" : "VEC2", "max" : [0.990908145904541, -0.00735241174697876], "min" : [0.010456264019012451, -0.9885016679763794], "name" : "TEXCOORD_0"}], "asset" : {"generator" : "Aspose.3D 23.2", "version" : "2.0"}, "buffers" : [{"uri" : "data:application/octet-stream;base64,", "byteLength" : 986552}], "bufferViews" : [{"buffer" : 0, "byteOffset" : 0, "byteLength" : 58032, "target" : 34963}, {"buffer" : 0, "byteOffset" : 58036, "byteLength" : 928512, "byteStride" : 32, "target" : 34962}], "materials" : [{"name" : "retro_computer_setup_Mat", "pbrMetallicRoughness" : {"baseColorFactor" : [0.800000011920929, 0.800000011920929, 0.800000011920929, 1], "metallicFactor" : 0, "roughnessFactor" : 0}, "emissiveFactor" : [0, 0, 0], "alphaMode" : "OPAQUE", "doubleSided" : false}], "meshes" : [{"primitives" : [{"attributes" : {"POSITION" : 1, "NORMAL" : 2, "TEXCOORD_0" : 3}, "indices" : 0, "material" : 0, "mode" : 4}], "name" : "retro_computer_setup"}], "nodes" : [{"matrix" : [1, 0, 0, 0, 0, -1.6292067955264295E-07, -0.9999999999999867, 0, 0, 0.9999999999999867, -1.6292067955264295E-07, 0, 0, 0, 0, 1], "mesh" : 0, "name" : "retro_computer_setup"}], "scene" : 0, "scenes" : [{"nodes" : [0]}]}