{"accessors" : [{"bufferView" : 0, "byteOffset" : 0, "componentType" : 5123, "count" : 41184, "type" : "SCALAR", "max" : [30429], "min" : [0]}, {"bufferView" : 1, "byteOffset" : 0, "componentType" : 5126, "count" : 30430, "type" : "VEC3", "max" : [3.8902430534362793, 5.264082908630371, 3.500349998474121], "min" : [-4.377699851989746, -0.09630700200796127, -4.398749828338623], "name" : "POSITION"}, {"bufferView" : 1, "byteOffset" : 12, "componentType" : 5126, "count" : 30430, "type" : "VEC2", "max" : [0.9980400204658508, -0.0019499999471008778], "min" : [0.0019499999471008778, -0.8167700171470642], "name" : "TEXCOORD_0"}, {"bufferView" : 1, "byteOffset" : 20, "componentType" : 5126, "count" : 30430, "type" : "VEC3", "max" : [0.9966568946838379, 0.9998949766159058, 0.9997036457061768], "min" : [-0.9998343586921692, -0.9887370467185974, -0.9999931454658508], "name" : "NORMAL"}], "asset" : {"generator" : "Aspose.3D 23.2", "version" : "2.0"}, "buffers" : [{"uri" : "data:application/octet-stream;base64,", "byteLength" : 1400264}], "bufferViews" : [{"buffer" : 0, "byteOffset" : 0, "byteLength" : 82368, "target" : 34963}, {"buffer" : 0, "byteOffset" : 82372, "byteLength" : 1317888, "byteStride" : 32, "target" : 34962}], "meshes" : [{"primitives" : [{"attributes" : {"POSITION" : 1, "TEXCOORD_0" : 2, "NORMAL" : 3}, "indices" : 0, "mode" : 4}], "name" : ""}], "nodes" : [{"mesh" : 0, "name" : "Group38189"}], "scene" : 0, "scenes" : [{"nodes" : [0]}]}